<?xml version="1.0" standalone="no"?>
<!DOCTYPE svg PUBLIC "-//W3C//DTD SVG 20010904//EN"
 "http://www.w3.org/TR/2001/REC-SVG-20010904/DTD/svg10.dtd">
<svg version="1.0" xmlns="http://www.w3.org/2000/svg"
 width="100.000000pt" height="100.000000pt" viewBox="0 0 100.000000 100.000000"
 preserveAspectRatio="xMidYMid meet">

<g transform="translate(0.000000,100.000000) scale(0.100000,-0.100000)"
fill="#000000" stroke="none">
<path d="M491 814 c-42 -16 -118 -80 -139 -119 -8 -16 -13 -17 -26 -6 -25 21
-101 16 -136 -9 -30 -21 -60 -67 -60 -92 0 -7 -17 -23 -38 -36 -129 -80 -117
-270 23 -333 36 -17 72 -19 390 -19 344 0 352 0 395 23 73 36 111 113 96 193
-9 47 -68 111 -117 126 -36 10 -39 14 -39 47 -1 77 -66 173 -145 213 -52 27
-147 33 -204 12z m205 -59 c61 -36 104 -111 104 -182 l0 -52 38 -7 c133 -24
165 -184 50 -254 -31 -19 -51 -20 -382 -20 -336 0 -350 1 -386 21 -53 30 -84
88 -77 146 6 56 31 91 85 121 31 17 42 30 42 48 0 13 13 38 28 55 34 38 89 42
133 10 l28 -21 27 50 c27 50 79 94 130 110 48 15 131 4 180 -25z"/>
</g>
</svg>
