<svg id="Camada_1" data-name="Camada 1" xmlns="http://www.w3.org/2000/svg" xmlns:xlink="http://www.w3.org/1999/xlink" viewBox="0 0 55.66 23.29"><defs><style>.cls-1{fill:url(#Gradiente_sem_nome_107);}.cls-2{fill:url(#Gradiente_sem_nome_107-2);}.cls-3{fill:url(#Gradiente_sem_nome_107-3);}.cls-4{fill:url(#Gradiente_sem_nome_107-4);}.cls-5{fill:url(#Gradiente_sem_nome_177);}.cls-6,.cls-7{fill:none;stroke-linecap:round;stroke-linejoin:round;stroke-width:2px;}.cls-6{stroke:url(#Gradiente_sem_nome_149);}.cls-7{stroke:url(#Gradiente_sem_nome_149-2);}.cls-8{fill:#9747ff;}.cls-9{fill:url(#Gradiente_sem_nome_132);}</style><linearGradient id="Gradiente_sem_nome_107" x1="6.19" y1="5.76" x2="16.95" y2="5.76" gradientUnits="userSpaceOnUse"><stop offset="0" stop-color="#01a0c6"/><stop offset="1" stop-color="#80c41c"/></linearGradient><linearGradient id="Gradiente_sem_nome_107-2" x1="29.47" y1="5.76" x2="39.64" y2="5.76" xlink:href="#Gradiente_sem_nome_107"/><linearGradient id="Gradiente_sem_nome_107-3" x1="40.73" y1="5.76" x2="43.33" y2="5.76" xlink:href="#Gradiente_sem_nome_107"/><linearGradient id="Gradiente_sem_nome_107-4" x1="45.16" y1="5.76" x2="52.81" y2="5.76" xlink:href="#Gradiente_sem_nome_107"/><linearGradient id="Gradiente_sem_nome_177" x1="52.81" y1="5.76" x2="6.19" y2="5.76" gradientUnits="userSpaceOnUse"><stop offset="0" stop-color="#9747ff"/><stop offset="1" stop-color="#c497ff"/></linearGradient><linearGradient id="Gradiente_sem_nome_149" x1="21.59" y1="10.16" x2="17.76" y2="10.16" xlink:href="#Gradiente_sem_nome_177"/><linearGradient id="Gradiente_sem_nome_149-2" x1="27.08" y1="2.79" x2="17.27" y2="8.45" xlink:href="#Gradiente_sem_nome_177"/><linearGradient id="Gradiente_sem_nome_132" x1="57.33" y1="18.14" x2="1.67" y2="18.14" gradientUnits="userSpaceOnUse"><stop offset="0" stop-color="#9747ff"/><stop offset="0.25" stop-color="#a25bff"/><stop offset="1" stop-color="#c497ff"/></linearGradient></defs><path class="cls-1" d="M6.19,10.92V.61H8.07l3.94,6h-.86l3.92-6H17V10.92H14.36v-6l.41.1L12.43,8.59H10.71L8.39,5l.39-.1v6Z" transform="translate(-1.67 -0.18)"/><path class="cls-2" d="M33.35,10.92,29.47.61h2.78l2.91,8.33H34l3-8.33h2.72L35.72,10.92Z" transform="translate(-1.67 -0.18)"/><path class="cls-3" d="M40.73,10.92V.61h2.6V10.92Z" transform="translate(-1.67 -0.18)"/><path class="cls-4" d="M45.16,10.92V.61h2.6V10.92ZM47.23,2.8V.61h5.51V2.8Zm0,3.93V4.59h5.06V6.73Zm0,4.19V8.72h5.58v2.2Z" transform="translate(-1.67 -0.18)"/><path class="cls-5" d="M6.19,10.92V.61H8.07l3.94,6h-.86l3.92-6H17V10.92H14.36v-6l.41.1L12.43,8.59H10.71L8.39,5l.39-.1v6Z" transform="translate(-1.67 -0.18)"/><path class="cls-5" d="M33.35,10.92,29.47.61h2.78l2.91,8.33H34l3-8.33h2.72L35.72,10.92Z" transform="translate(-1.67 -0.18)"/><path class="cls-5" d="M40.73,10.92V.61h2.6V10.92Z" transform="translate(-1.67 -0.18)"/><path class="cls-5" d="M45.16,10.92V.61h2.6V10.92ZM47.23,2.8V.61h5.51V2.8Zm0,3.93V4.59h5.06V6.73Zm0,4.19V8.72h5.58v2.2Z" transform="translate(-1.67 -0.18)"/><path class="cls-6" d="M20.59,9.26l-1.83,1.8" transform="translate(-1.67 -0.18)"/><ellipse class="cls-7" cx="22.18" cy="5.62" rx="4.68" ry="4.62"/><path class="cls-8" d="M5.49,23.47a5.22,5.22,0,0,1-2.15-.4,4.88,4.88,0,0,1-1.67-1.24l1.6-1.66A4,4,0,0,0,4.36,21a2.86,2.86,0,0,0,1.33.3,1.76,1.76,0,0,0,1-.22A.71.71,0,0,0,7,20.49a.79.79,0,0,0-.26-.61,2.39,2.39,0,0,0-.67-.41c-.27-.11-.57-.23-.91-.35a8.53,8.53,0,0,1-1-.4,4.58,4.58,0,0,1-.91-.59,2.65,2.65,0,0,1-.66-.88A2.89,2.89,0,0,1,2.35,16a3.06,3.06,0,0,1,.46-1.68,2.88,2.88,0,0,1,1.27-1.09A4.46,4.46,0,0,1,6,12.81a5.28,5.28,0,0,1,2,.38,3.79,3.79,0,0,1,1.49,1.05l-1.6,1.65a3.5,3.5,0,0,0-.9-.71,2.28,2.28,0,0,0-1-.23,1.47,1.47,0,0,0-.81.19.59.59,0,0,0-.3.54.7.7,0,0,0,.26.56,2.55,2.55,0,0,0,.66.38c.28.12.58.23.91.35a9.39,9.39,0,0,1,1,.41,3.84,3.84,0,0,1,.91.59,2.85,2.85,0,0,1,.66.92,3.17,3.17,0,0,1,.25,1.34,2.89,2.89,0,0,1-1.05,2.38A4.51,4.51,0,0,1,5.49,23.47Z" transform="translate(-1.67 -0.18)"/><path class="cls-8" d="M10.75,23.3V13h2.51V23.3Zm2-8.12V13h5.31v2.19Zm0,3.93V17h4.88v2.14Zm0,4.19V21.1h5.38v2.2Z" transform="translate(-1.67 -0.18)"/><path class="cls-8" d="M18.79,23.3,22.66,13h2.43L28.91,23.3H26.28L23.4,14.63h.9L21.39,23.3Zm2.36-1.81V19.43h5.49v2.06Z" transform="translate(-1.67 -0.18)"/><path class="cls-8" d="M29.93,23.3V13h2.51V23.3Zm2-4.18V17.28h1.9a1.3,1.3,0,0,0,.93-.32,1.27,1.27,0,0,0,0-1.71,1.26,1.26,0,0,0-.93-.33h-1.9V13h2.26a3.83,3.83,0,0,1,1.76.39,3,3,0,0,1,1.2,1.07,2.93,2.93,0,0,1,.43,1.6,2.89,2.89,0,0,1-.44,1.62,3,3,0,0,1-1.23,1.07,4.18,4.18,0,0,1-1.83.38Zm3.4,4.18-2.89-4.42,2.27-.57,3.52,5Z" transform="translate(-1.67 -0.18)"/><path class="cls-8" d="M43.86,23.47a5.42,5.42,0,0,1-2.1-.41,5.25,5.25,0,0,1-1.69-1.12A5.19,5.19,0,0,1,39,20.24a5.67,5.67,0,0,1-.4-2.12A5.35,5.35,0,0,1,39,16a4.83,4.83,0,0,1,1.11-1.68,5.21,5.21,0,0,1,1.68-1.12,5.35,5.35,0,0,1,2.1-.41A5.44,5.44,0,0,1,46,13.2a5.21,5.21,0,0,1,1.66,1.05L45.92,16a2.6,2.6,0,0,0-.88-.64,3,3,0,0,0-1.2-.23,2.84,2.84,0,0,0-1.1.21,2.34,2.34,0,0,0-.87.6,2.72,2.72,0,0,0-.56.95,3.4,3.4,0,0,0-.21,1.22,3.52,3.52,0,0,0,.21,1.25,2.67,2.67,0,0,0,.56.94,2.43,2.43,0,0,0,.86.62,2.85,2.85,0,0,0,1.11.21,3.09,3.09,0,0,0,1.22-.22,2.79,2.79,0,0,0,.92-.63L47.66,22A5.57,5.57,0,0,1,46,23.09,5.71,5.71,0,0,1,43.86,23.47Z" transform="translate(-1.67 -0.18)"/><path class="cls-8" d="M48.74,23.3V13h2.51V23.3Zm1.43-4.18V16.93h5.55v2.19Zm4.65,4.18V13h2.51V23.3Z" transform="translate(-1.67 -0.18)"/><path class="cls-9" d="M5.49,23.47a5.22,5.22,0,0,1-2.15-.4,4.88,4.88,0,0,1-1.67-1.24l1.6-1.66A4,4,0,0,0,4.36,21a2.86,2.86,0,0,0,1.33.3,1.76,1.76,0,0,0,1-.22A.71.71,0,0,0,7,20.49a.79.79,0,0,0-.26-.61,2.39,2.39,0,0,0-.67-.41c-.27-.11-.57-.23-.91-.35a8.53,8.53,0,0,1-1-.4,4.58,4.58,0,0,1-.91-.59,2.65,2.65,0,0,1-.66-.88A2.89,2.89,0,0,1,2.35,16a3.06,3.06,0,0,1,.46-1.68,2.88,2.88,0,0,1,1.27-1.09A4.46,4.46,0,0,1,6,12.81a5.28,5.28,0,0,1,2,.38,3.79,3.79,0,0,1,1.49,1.05l-1.6,1.65a3.5,3.5,0,0,0-.9-.71,2.28,2.28,0,0,0-1-.23,1.47,1.47,0,0,0-.81.19.59.59,0,0,0-.3.54.7.7,0,0,0,.26.56,2.55,2.55,0,0,0,.66.38c.28.12.58.23.91.35a9.39,9.39,0,0,1,1,.41,3.84,3.84,0,0,1,.91.59,2.85,2.85,0,0,1,.66.92,3.17,3.17,0,0,1,.25,1.34,2.89,2.89,0,0,1-1.05,2.38A4.51,4.51,0,0,1,5.49,23.47Z" transform="translate(-1.67 -0.18)"/><path class="cls-9" d="M10.75,23.3V13h2.51V23.3Zm2-8.12V13h5.31v2.19Zm0,3.93V17h4.88v2.14Zm0,4.19V21.1h5.38v2.2Z" transform="translate(-1.67 -0.18)"/><path class="cls-9" d="M18.79,23.3,22.66,13h2.43L28.91,23.3H26.28L23.4,14.63h.9L21.39,23.3Zm2.36-1.81V19.43h5.49v2.06Z" transform="translate(-1.67 -0.18)"/><path class="cls-9" d="M29.93,23.3V13h2.51V23.3Zm2-4.18V17.28h1.9a1.3,1.3,0,0,0,.93-.32,1.27,1.27,0,0,0,0-1.71,1.26,1.26,0,0,0-.93-.33h-1.9V13h2.26a3.83,3.83,0,0,1,1.76.39,3,3,0,0,1,1.2,1.07,2.93,2.93,0,0,1,.43,1.6,2.89,2.89,0,0,1-.44,1.62,3,3,0,0,1-1.23,1.07,4.18,4.18,0,0,1-1.83.38Zm3.4,4.18-2.89-4.42,2.27-.57,3.52,5Z" transform="translate(-1.67 -0.18)"/><path class="cls-9" d="M43.86,23.47a5.42,5.42,0,0,1-2.1-.41,5.25,5.25,0,0,1-1.69-1.12A5.19,5.19,0,0,1,39,20.24a5.67,5.67,0,0,1-.4-2.12A5.35,5.35,0,0,1,39,16a4.83,4.83,0,0,1,1.11-1.68,5.21,5.21,0,0,1,1.68-1.12,5.35,5.35,0,0,1,2.1-.41A5.44,5.44,0,0,1,46,13.2a5.21,5.21,0,0,1,1.66,1.05L45.92,16a2.6,2.6,0,0,0-.88-.64,3,3,0,0,0-1.2-.23,2.84,2.84,0,0,0-1.1.21,2.34,2.34,0,0,0-.87.6,2.72,2.72,0,0,0-.56.95,3.4,3.4,0,0,0-.21,1.22,3.52,3.52,0,0,0,.21,1.25,2.67,2.67,0,0,0,.56.94,2.43,2.43,0,0,0,.86.62,2.85,2.85,0,0,0,1.11.21,3.09,3.09,0,0,0,1.22-.22,2.79,2.79,0,0,0,.92-.63L47.66,22A5.57,5.57,0,0,1,46,23.09,5.71,5.71,0,0,1,43.86,23.47Z" transform="translate(-1.67 -0.18)"/><path class="cls-9" d="M48.74,23.3V13h2.51V23.3Zm1.43-4.18V16.93h5.55v2.19Zm4.65,4.18V13h2.51V23.3Z" transform="translate(-1.67 -0.18)"/></svg>